<?xml version="1.0" encoding="UTF-8" standalone="no"?>
<svg xmlns="http://www.w3.org/2000/svg" version="1.0" width="96" height="96" viewBox="0 0 96 96">
  <g transform="scale(4)">
<path d="M17.6,14.2c0.3-0.7,0.4-1.4,0.4-2.2c0-3.3-2.7-6-6-6c-0.8,0-1.5,0.2-2.2,0.4l1.6,1.6C11.6,8,11.8,8,12,8c2.2,0,4,1.8,4,4c0,0.2,0,0.4-0.1,0.6L17.6,14.2z M12,4c4.4,0,8,3.6,8,8c0,1.4-0.4,2.6-0.9,3.7l1.5,1.5c0.9-1.5,1.5-3.3,1.5-5.2c0-5.5-4.5-10-10-10c-1.9,0-3.7,0.5-5.2,1.5l1.5,1.5C9.4,4.3,10.6,4,12,4z M3.3,2.5L2,3.8l2.1,2.1C2.8,7.6,2,9.7,2,12c0,3.7,2,6.9,5,8.6l1-1.7c-2.4-1.4-4-4-4-6.9c0-1.8,0.6-3.4,1.5-4.7L7,8.7C6.4,9.7,6,10.8,6,12c0,2.2,1.2,4.1,3,5.2l1-1.7c-1.2-0.7-2-2-2-3.4c0-0.6,0.2-1.2,0.4-1.8l1.6,1.6c0,0.1,0,0.1,0,0.2c0,1.1,0.9,2,2,2c0.1,0,0.1,0,0.2,0l0,0v0l7.5,7.5l1.3-1.3L4.3,3.5L3.3,2.5z"/>
</g>
</svg>
